# xmcd
# 
# Track frame offsets:
#     150
#     14679
#     35927
#     53605
#     71130
#     89685
#     110563
#     128821
#     148350
#     164879
#     180414
#     199306
#     218302
# 
# Disc length: 3136
# 
# Revision: 3
# Processed by: cddbd v1.5.2PL0 Copyright (c) Steve Scherf et al.
# Submitted via: fre:ac v1.0.31
# 
DISCID=ce0c3e0d
DTITLE=Joaquín Sabina - Alivio De Luto
DYEAR=2005
DGENRE=Trova
TTITLE0=Pájaros De Portugal
TTITLE1=Pie De Guerra
TTITLE2=¡Ay! Rocío
TTITLE3=Contrabando
TTITLE4=Paisanaje
TTITLE5=Resumiendo
TTITLE6=Máter España
TTITLE7=Con Lo Que Eso Duele
TTITLE8=Dos Horas Después
TTITLE9=Me Pido Primer
TTITLE10=Nube Negra
TTITLE11=Números Rojos
TTITLE12=Seis Tequilas
EXTD=
EXTT0=
EXTT1=
EXTT2=
EXTT3=
EXTT4=
EXTT5=
EXTT6=
EXTT7=
EXTT8=
EXTT9=
EXTT10=
EXTT11=
EXTT12=
PLAYORDER=
